<svg width="243" height="137" viewBox="0 0 243 137" fill="none" xmlns="http://www.w3.org/2000/svg">
<path d="M79.2776 10.1551C96.4065 -3.38507 120.593 -3.38508 137.722 10.1551L139.644 11.6743C147.776 18.102 158.044 21.2035 168.374 20.3522L196.559 18.0294C210.197 16.9055 220.99 29.3676 217.931 42.705C215.782 52.0734 220.524 61.6599 229.274 65.6368L229.875 65.9097C246.313 73.3807 246.313 96.7297 229.875 104.201L229.274 104.474C220.524 108.45 215.782 118.037 217.931 127.405C220.99 140.743 210.197 153.205 196.559 152.081L168.374 149.758C158.044 148.907 147.776 152.008 139.644 158.436L137.722 159.955C120.593 173.495 96.4065 173.495 79.2776 159.955L77.3558 158.436C69.2245 152.008 58.9564 148.907 48.6264 149.758L20.4408 152.081C6.8032 153.205 -3.99022 140.743 -0.930744 127.405C1.21825 118.037 -3.5238 108.45 -12.2741 104.474L-12.8745 104.201C-29.3128 96.7297 -29.3128 73.3807 -12.8745 65.9097L-12.2741 65.6368C-3.52381 61.6599 1.21825 52.0734 -0.930744 42.705C-3.99022 29.3676 6.80319 16.9055 20.4408 18.0294L48.6264 20.3522C58.9564 21.2035 69.2245 18.102 77.3558 11.6743L79.2776 10.1551Z" fill="#0081CC"/>
</svg>
